<svg xmlns="http://www.w3.org/2000/svg" viewBox="0 0 96 96" role="img" aria-labelledby="title desc">
  <title id="title">ChatGPT &amp; Gemini PDF Exporter mark</title>
  <desc id="desc">A minimal daisy-inspired export mark.</desc>
  <rect width="96" height="96" rx="26" fill="#f7fbff"/>
  <g fill="#ffffff" stroke="#c7d7ea" stroke-width="2">
    <ellipse cx="48" cy="20" rx="10" ry="17"/>
    <ellipse cx="48" cy="76" rx="10" ry="17"/>
    <ellipse cx="20" cy="48" rx="17" ry="10"/>
    <ellipse cx="76" cy="48" rx="17" ry="10"/>
    <ellipse cx="28" cy="28" rx="10" ry="16" transform="rotate(-45 28 28)"/>
    <ellipse cx="68" cy="28" rx="10" ry="16" transform="rotate(45 68 28)"/>
    <ellipse cx="28" cy="68" rx="10" ry="16" transform="rotate(45 28 68)"/>
    <ellipse cx="68" cy="68" rx="10" ry="16" transform="rotate(-45 68 68)"/>
  </g>
  <circle cx="48" cy="48" r="18" fill="#f7c948"/>
  <path d="M38 47c3 6 17 6 20 0" fill="none" stroke="#172033" stroke-linecap="round" stroke-width="4"/>
  <circle cx="42" cy="43" r="2.5" fill="#172033"/>
  <circle cx="54" cy="43" r="2.5" fill="#172033"/>
</svg>
